<svg width="316" height="117" viewBox="0 0 316 117" fill="none" xmlns="http://www.w3.org/2000/svg">
<path d="M297.938 60.5662C301.395 60.2895 304.535 59.1095 306.07 57.8276C307.562 56.5512 309.042 54.3605 309.583 52.443C310.123 50.5255 310.65 49.645 310.292 46.8187C309.935 43.9923 308.772 40.1052 306.636 36.6336C305.058 34.1357 303.101 31.9032 300.763 29.9364C298.421 27.9268 295.881 26.4207 293.144 25.4181C290.401 24.3728 287.616 24.0288 284.79 24.3863C282.606 24.6626 280.909 25.1817 279.701 25.9437C278.486 26.663 277.66 27.5288 277.223 28.5414C276.737 29.5165 276.559 30.5179 276.689 31.5457C276.868 32.9589 277.464 34.2322 278.478 35.3658C279.491 36.4994 280.641 37.1589 281.926 37.3444C281.974 37.3818 282.041 37.3951 282.127 37.3843C282.175 37.4217 282.263 37.4322 282.392 37.416C282.306 37.4268 282.218 37.4162 282.127 37.3843C282.084 37.3897 282.062 37.3924 282.062 37.3924L281.926 37.3444C281.294 37.1633 280.632 36.5726 279.94 35.5725C279.205 34.5777 278.759 33.4594 278.601 32.2175C278.428 30.8471 278.785 29.5403 279.672 28.2968C280.559 27.0534 282.394 26.2557 285.178 25.9036C287.661 25.5894 290.165 25.9472 292.688 26.9768C295.168 28.0118 297.489 29.5022 299.649 31.4479C301.767 33.3989 303.564 35.5647 305.04 37.945C306.913 41.0583 308.32 44.2827 308.716 47.4088C309.073 50.2352 307.038 55.4304 304.844 56.9978C302.649 58.5653 300.092 59.0866 296.924 59.4875C292.98 59.9863 294.48 60.8429 297.938 60.5662Z" fill="#1F1F1F"/>
<path d="M278.539 59.7524C276.43 59.9211 274.782 59.6199 273.595 58.8489C272.407 58.0779 271.776 57.2191 271.7 56.2725C271.645 55.584 271.898 54.9575 272.459 54.393C272.973 53.7889 273.919 53.4317 275.296 53.3216C276.157 53.2527 277.2 53.2991 278.425 53.4609C279.346 53.6037 280.315 53.8076 281.332 54.0727C282.392 54.3343 283.458 54.4005 284.531 54.2714C284.794 53.774 284.935 53.373 284.954 53.0683C284.973 52.7637 284.965 52.3962 284.931 51.966C284.817 50.5461 284.486 49.3818 283.937 48.473C283.431 47.5609 282.84 46.6771 282.166 45.8217C281.534 44.9629 280.973 43.9036 280.482 42.6438C279.999 43.6351 279.389 44.9397 278.652 46.5576C277.912 48.1324 276.657 50.3113 274.888 53.0944C274.776 53.3198 274.527 53.4481 274.14 53.4791C273.494 53.5307 273.149 53.2769 273.104 52.7175C273.094 52.5884 273.186 52.3862 273.38 52.1108C273.532 51.8389 273.909 51.1375 274.511 50.0067C275.186 48.697 275.978 47.2263 276.886 45.5947C277.791 43.92 278.642 42.0982 279.437 40.1293C279.421 39.3944 279.515 38.6724 279.718 37.9633C279.921 37.2542 280.172 36.6062 280.472 36.0193C280.883 35.2069 281.333 34.608 281.822 34.2224C282.307 33.7939 282.765 33.5624 283.195 33.5279C284.013 33.4625 284.46 33.9031 284.535 34.8497C284.587 35.4951 284.396 36.3548 283.962 37.4288C283.713 38.0983 283.37 38.6886 282.935 39.1998C282.496 39.6679 282.118 40.0879 281.802 40.4597C281.974 41.5285 282.309 42.4759 282.808 43.302C283.308 44.1281 283.848 44.9293 284.43 45.7055C285.055 46.4783 285.598 47.3224 286.061 48.2381C286.524 49.1537 286.809 50.2784 286.916 51.6122C286.985 52.4728 286.898 53.2808 286.655 54.0364C287.605 54.0037 288.546 53.582 289.477 52.7713C290.448 51.9142 291.337 50.8471 292.144 49.57C292.994 48.2895 293.735 46.9961 294.367 45.6898C294.558 45.3714 294.825 45.1984 295.169 45.1709C295.385 45.1536 295.605 45.201 295.83 45.3128C296.056 45.4247 296.181 45.6312 296.205 45.9324C296.218 46.1045 296.171 46.3248 296.063 46.5933C294.994 48.9306 293.929 50.7696 292.867 52.1104C291.844 53.4047 290.771 54.3349 289.647 54.9012C288.524 55.4675 287.255 55.8504 285.842 56.0501C284.846 57.1258 283.746 57.9933 282.543 58.6525C281.379 59.2652 280.045 59.6318 278.539 59.7524ZM278.092 58.2292C279.082 58.15 279.93 57.9305 280.638 57.5708C281.345 57.2111 282.107 56.7171 282.922 56.0889C282.008 56.0321 281.243 55.9418 280.627 55.8179C280.008 55.6509 279.216 55.4978 278.252 55.3584C277.027 55.1966 276.07 55.1433 275.381 55.1984C274.134 55.2983 273.534 55.6494 273.582 56.2518C273.62 56.7251 274.07 57.2087 274.932 57.7026C275.791 58.1535 276.844 58.329 278.092 58.2292Z" fill="#1F1F1F"/>
<path d="M250.818 61.5159C250.603 61.5331 250.361 61.4875 250.093 61.3791C249.825 61.2707 249.682 61.1089 249.664 60.8938C249.637 60.5495 249.677 60.2432 249.786 59.9747C250.176 58.9042 250.677 57.5867 251.288 56.0222C251.942 54.4542 252.571 52.845 253.175 51.1944C253.819 49.4974 254.342 47.9183 254.745 46.4571C255.191 44.9924 255.379 43.8298 255.31 42.9693C255.289 42.7111 255.206 42.4796 255.06 42.2748C254.953 42.0236 254.727 41.9117 254.383 41.9392C253.867 41.9806 253.368 42.237 252.886 42.7086C252.447 43.1767 252.056 43.706 251.714 44.2963C251.368 44.8436 251.08 45.2997 250.849 45.6646C250.082 46.8952 249.436 48.0294 248.913 49.0673C248.386 50.0621 247.838 51.0586 247.268 52.0568C246.738 53.0086 246.066 54.08 245.252 55.271C245.137 55.4535 244.998 55.6161 244.837 55.759C244.714 55.8554 244.524 55.9139 244.266 55.9345C244.008 55.9552 243.782 55.8433 243.59 55.5989C243.354 55.358 243.292 55.1248 243.404 54.8993C244.23 53.3176 245.041 51.8237 245.838 50.4175C246.632 48.9684 247.333 47.7214 247.942 46.6767C248.551 45.632 248.971 44.9272 249.202 44.5623C249.858 43.5572 250.538 42.5933 251.244 41.6708C251.993 40.7448 253.055 40.2268 254.432 40.1166C255.594 40.0236 256.416 40.2826 256.898 40.8936C257.423 41.5011 257.72 42.2352 257.788 43.0957C257.912 44.6447 257.427 46.6971 256.333 49.253C257.79 47.4475 259.368 45.7841 261.065 44.2626C262.805 42.7376 264.434 41.4597 265.954 40.4287C267.47 39.3547 268.629 38.6774 269.429 38.3969C269.806 38.2368 270.185 38.0983 270.565 37.9812C270.988 37.8607 271.372 37.7867 271.716 37.7592C272.147 37.7247 272.499 37.8048 272.775 37.9992C273.093 38.1903 273.277 38.587 273.325 39.1894C273.373 39.7917 273.055 40.6833 272.37 41.864C271.681 43.0016 270.834 44.3252 269.829 45.8346C268.864 47.2975 267.943 48.7786 267.067 50.2777C266.191 51.7767 265.588 53.1674 265.257 54.4496C265.152 54.7612 265.09 55.0692 265.072 55.3739C265.049 55.6355 265.047 55.8738 265.064 56.089C265.157 57.2507 265.741 57.7885 266.817 57.7025C267.505 57.6474 268.338 57.2343 269.316 56.4632C269.887 56.0278 270.434 55.551 270.955 55.033C271.516 54.4684 271.932 53.9805 272.202 53.5691C272.789 52.786 273.255 52.1208 273.601 51.5735C273.99 51.0227 274.354 50.4307 274.693 49.7973C275.072 49.1175 275.546 48.2784 276.116 47.2802C276.228 47.0547 276.345 46.8938 276.467 46.7974C276.589 46.701 276.801 46.6408 277.102 46.6167C277.575 46.5788 277.836 46.861 277.884 47.4634C277.905 47.7216 277.747 48.1889 277.412 48.8653C277.073 49.4986 276.654 50.2249 276.157 51.0442C275.699 51.817 275.238 52.5467 274.773 53.2335C274.348 53.8737 274.038 54.3315 273.844 54.6069C273.415 55.2041 272.86 55.8332 272.176 56.4941C271.536 57.1516 270.867 57.7247 270.17 58.2136C269.513 58.6559 268.825 58.9924 268.108 59.223C267.39 59.4537 266.687 59.5965 265.998 59.6516C264.88 59.7411 264.036 59.4839 263.468 58.8798C262.943 58.2722 262.652 57.6027 262.593 56.8713C262.504 55.7526 262.768 54.454 263.386 52.9756C264.043 51.4507 264.831 49.9369 265.75 48.4344C266.709 46.8854 267.594 45.4939 268.404 44.2598C269.258 43.0223 269.836 42.1317 270.139 41.5878C270.215 41.4518 270.271 41.3391 270.307 41.2496C270.34 41.1171 270.352 41.0078 270.346 40.9217C270.318 40.5775 270.046 40.426 269.53 40.4674C269.272 40.488 268.976 40.5767 268.642 40.7333C266.936 41.6059 265.172 42.8297 263.349 44.4045C261.57 45.9759 259.93 47.6661 258.429 49.475C256.968 51.2374 255.822 52.8879 254.993 54.4266L252.737 58.6993C252.549 59.0607 252.385 59.442 252.243 59.843C252.099 60.201 251.933 60.5607 251.745 60.9221C251.515 61.287 251.206 61.4849 250.818 61.5159Z" fill="#1F1F1F"/>
<path d="M228.862 64.572C227.7 64.665 226.751 64.4378 226.014 63.8905C225.278 63.3432 224.703 62.6531 224.29 61.8201C223.916 60.9406 223.698 60.1136 223.637 59.3392C223.554 58.3065 223.656 57.1508 223.944 55.872C224.228 54.5502 224.501 53.6406 224.765 53.1432C224.754 53.0141 224.722 52.8867 224.669 52.7611C224.655 52.589 224.643 52.4384 224.633 52.3093C224.54 51.1476 224.616 49.929 224.86 48.6537C225.13 47.1598 225.712 45.7709 226.605 44.4869C227.495 43.1599 228.64 42.0506 230.041 41.1591C231.485 40.2641 233.089 39.746 234.853 39.6048C236.919 39.4396 238.555 39.8715 239.764 40.9007C240.968 41.8869 241.641 43.262 241.783 45.0261C241.979 47.4787 241.696 49.6232 240.933 51.4596C240.214 53.2926 239.425 55.0662 238.566 56.7804C238.422 57.1384 238.293 57.4301 238.181 57.6556C238.07 57.8811 238.207 57.9783 238.595 57.9473C239.842 57.8475 241.027 57.233 242.149 56.1039C243.272 54.9749 244.642 52.8949 246.262 49.864C246.374 49.6385 246.489 49.4561 246.608 49.3167C246.726 49.1773 246.915 49.0973 247.173 49.0766L247.302 49.0663C247.776 49.0284 248.078 49.2857 248.208 49.8382C248.219 49.9672 248.188 50.1213 248.115 50.3003C247.191 52.2796 246.225 54.0024 245.216 55.4688C244.251 56.9317 243.044 58.0892 241.597 58.9412C240.146 59.7501 238.282 60.2674 236.005 60.4929C235.17 61.4257 234.115 62.3112 232.84 63.1494C231.608 63.9842 230.282 64.4584 228.862 64.572ZM234.583 58.1384L235.228 58.0868C236.046 56.9388 236.808 55.6437 237.515 54.2014C238.266 52.7556 238.84 51.2806 239.24 49.7764C239.636 48.2291 239.78 46.7886 239.673 45.4547C239.574 44.2069 239.166 43.1786 238.452 42.3697C237.734 41.5178 236.58 41.1555 234.988 41.2829C233.912 41.369 232.877 41.69 231.882 42.2459C230.927 42.7554 230.109 43.3621 229.429 44.066L229.644 44.3087C229.726 44.2588 229.854 44.2269 230.026 44.2132C230.284 44.1925 230.529 44.2811 230.761 44.4791C230.99 44.634 231.113 44.819 231.131 45.0341C231.141 45.1632 231.128 45.2725 231.092 45.362C231.056 45.4515 230.998 45.5427 230.919 45.6356C230.274 46.7698 229.645 47.8378 229.032 48.8395C228.419 49.8412 227.86 50.9685 227.354 52.2215C227.249 52.533 227.122 52.8462 226.974 53.1612C227.446 54.7257 228.349 55.9958 229.683 56.9717C231.056 57.901 232.689 58.2899 234.583 58.1384ZM229.105 62.7339C229.965 62.665 230.805 62.338 231.624 61.7528C232.44 61.1246 233.13 60.5497 233.695 60.0282C230.397 59.9457 227.872 58.6971 226.12 56.2824C226.101 56.5871 226.051 57.0457 225.97 57.6584C225.889 58.2712 225.873 58.8787 225.921 59.4811C225.99 60.3416 226.247 61.1221 226.693 61.8226C227.139 62.5231 227.943 62.8269 229.105 62.7339Z" fill="#1F1F1F"/>
<path d="M219.6 37.3179C219.385 37.3351 219.145 37.311 218.88 37.2456C218.615 37.1802 218.471 36.9969 218.446 36.6957C218.429 36.4806 218.478 36.2818 218.594 36.0994C218.886 35.4264 219.465 34.8171 220.331 34.2715C221.24 33.7225 221.931 33.429 222.404 33.3911C222.619 33.3739 222.861 33.4195 223.129 33.5279C223.394 33.5933 223.539 33.7766 223.563 34.0778C223.622 34.8093 223.223 35.5124 222.368 36.187C221.556 36.8583 220.633 37.2352 219.6 37.3179ZM214.484 64.2936C213.021 64.4106 211.827 64.0948 210.901 63.3462C209.975 62.5975 209.453 61.4917 209.336 60.0288C209.267 59.1683 209.286 58.3223 209.393 57.491C209.496 56.6167 209.666 55.7588 209.902 54.9171C210.036 54.4301 210.318 53.628 210.748 52.511C211.218 51.3476 211.771 50.1342 212.406 48.8709C213.037 47.5646 213.663 46.4536 214.282 45.5379C214.902 44.6223 215.47 44.1438 215.986 44.1025C216.201 44.0853 216.488 44.149 216.846 44.2935C217.244 44.3916 217.454 44.5913 217.478 44.8925C217.492 45.0646 217.423 45.2866 217.272 45.5585C216.372 46.7564 215.446 48.1729 214.494 49.808C213.542 51.443 212.768 53.1289 212.171 54.8655C211.574 56.6021 211.337 58.2448 211.461 59.7938C211.619 61.7731 212.645 62.687 214.538 62.5355C215.829 62.4322 217.07 61.705 218.261 60.3539C219.495 58.9994 220.824 57.2042 222.247 54.9685C222.672 54.3282 223.034 53.7147 223.334 53.1278C223.673 52.4944 223.976 51.9505 224.243 51.4961C224.52 51.1709 224.83 50.9944 225.174 50.9669C225.691 50.9256 225.964 51.0985 225.995 51.4858C226.033 51.9591 225.749 52.7396 225.144 53.8273C224.538 54.9151 223.849 56.0528 223.078 57.2403C221.566 59.4399 220.228 61.1275 219.067 62.303C217.905 63.4785 216.377 64.1421 214.484 64.2936Z" fill="#1F1F1F"/>
<path d="M201.228 67.6278C200.367 67.6966 199.699 67.4686 199.224 66.9437C198.753 66.4618 198.423 65.8603 198.236 65.1391C198.048 64.418 197.932 63.7778 197.887 63.2184C197.746 61.4543 197.91 59.4492 198.38 57.2032C198.85 54.9571 199.427 52.7025 200.112 50.4392C200.84 48.1725 201.501 46.1494 202.095 44.3697C201.324 44.4747 200.473 44.6727 199.544 44.9636C198.658 45.251 197.849 45.424 197.117 45.4825C196.515 45.5307 196.193 45.2967 196.152 44.7803C196.093 44.0489 196.446 43.5876 197.21 43.3966C198.14 43.1057 199.094 42.8561 200.073 42.6478C201.053 42.4395 202.012 42.2545 202.952 42.0927C203.172 41.5987 203.479 40.838 203.873 39.8105C204.268 38.783 204.721 37.6858 205.234 36.5189C205.743 35.3089 206.242 34.2298 206.729 33.2815C207.255 32.2867 207.697 31.5802 208.053 31.1619C208.29 30.8831 208.56 30.7316 208.861 30.7075C209.162 30.6834 209.427 30.7488 209.656 30.9037C209.885 31.0586 210.01 31.2651 210.03 31.5233C210.041 31.6524 209.99 31.8297 209.878 32.0551C208.909 33.475 208.123 35.0103 207.519 36.6608C206.915 38.3114 206.307 39.9189 205.696 41.4834C206.464 41.3353 207.274 41.1839 208.128 41.029C208.982 40.874 209.817 40.7639 210.635 40.6984C210.893 40.6778 211.133 40.7019 211.355 40.7707C211.62 40.8361 211.765 41.0194 211.789 41.3206C211.809 41.5788 211.698 41.8042 211.453 41.997C211.252 42.1863 211.004 42.3361 210.71 42.4462C209.777 42.6941 208.799 42.9239 207.777 43.1356C206.794 43.3008 205.813 43.4876 204.834 43.6959C204.378 45.0314 203.848 46.5245 203.244 48.175C202.64 49.8256 202.062 51.539 201.511 53.3151C201 55.0449 200.593 56.7229 200.29 58.3494C199.988 59.9758 199.888 61.4344 199.991 62.7253C200.008 62.9404 200.038 63.3061 200.079 63.8225C200.16 64.2923 200.302 64.714 200.505 65.0875C200.708 65.4609 200.982 65.6339 201.326 65.6063C202.057 65.5478 202.558 65.3129 202.828 64.9015C203.099 64.4902 203.427 64.269 203.815 64.238C204.116 64.2139 204.381 64.2793 204.61 64.4342C204.882 64.5857 205.028 64.7905 205.049 65.0486C205.08 65.4359 204.851 65.8223 204.362 66.2078C203.916 66.5899 203.379 66.9143 202.751 67.1811C202.123 67.4479 201.615 67.5968 201.228 67.6278Z" fill="#1F1F1F"/>
<path d="M177.464 67.4508C176.044 67.5645 175.025 67.2779 174.408 66.5912C173.829 65.8581 173.497 64.9536 173.411 63.8779C173.328 62.8453 173.414 61.7558 173.669 60.6096C173.924 59.4633 174.207 58.4014 174.518 57.4238C174.869 56.3998 175.155 55.6407 175.375 55.1468C176.043 53.751 176.8 52.3913 177.647 51.0677C178.537 49.7408 179.503 48.5592 180.546 47.5231C181.586 46.4439 182.666 45.5997 183.786 44.9904C184.946 44.3347 186.129 43.9586 187.333 43.8622C189.399 43.6969 190.906 44.1392 191.856 45.189C192.803 46.1958 193.326 47.3231 193.426 48.5709C193.461 49.0012 193.432 49.4582 193.341 49.9418C193.221 50.601 193.05 51.1775 192.83 51.6715C192.653 52.162 192.392 52.421 192.048 52.4486C191.746 52.4727 191.455 52.3445 191.172 52.064C190.89 51.7834 190.78 51.4891 190.842 51.181C190.904 50.873 190.987 50.5632 191.092 50.2516C191.24 49.9367 191.324 49.6269 191.343 49.3222C191.369 49.1037 191.375 48.9083 191.361 48.7362C191.39 48.5607 191.398 48.3868 191.384 48.2147C191.291 47.053 190.84 46.288 190.031 45.9197C189.262 45.5049 188.447 45.3319 187.586 45.4008C186.597 45.48 185.586 45.8423 184.556 46.4878C183.568 47.1297 182.716 47.8475 182 48.6409C181.129 49.6632 180.27 50.8362 179.423 52.1597C178.577 53.4833 177.861 54.818 177.276 56.1639C177.207 56.3859 177.011 56.9212 176.69 57.7697C176.411 58.6148 176.141 59.5674 175.879 60.6276C175.657 61.6413 175.58 62.5785 175.649 63.439C175.697 64.0414 175.868 64.5474 176.16 64.957C176.496 65.3632 177.008 65.5387 177.697 65.4836C178.428 65.4251 179.24 65.0137 180.131 64.2495C181.066 63.4819 181.988 62.5637 182.898 61.4949C183.849 60.3796 184.694 59.3159 185.436 58.3039C186.178 57.2919 186.722 56.5122 187.068 55.9649C187.298 55.6 187.506 55.2154 187.69 54.8109C187.914 54.36 188.141 53.9521 188.371 53.5872C188.487 53.4047 188.738 53.298 189.125 53.267C189.469 53.2395 189.822 53.3195 190.184 53.5071C190.585 53.6482 190.756 53.8943 190.697 54.2454C190.549 54.5604 190.28 55.2532 189.889 56.3237C189.538 57.3477 189.217 58.4777 188.927 59.7134C188.632 60.9061 188.521 61.9543 188.594 62.8579C188.683 63.9766 189.079 64.5944 189.781 64.7114C190.261 64.7596 190.742 64.5479 191.224 64.0763C191.749 63.6013 192.204 63.0669 192.59 62.4731C193.019 61.8759 193.33 61.4396 193.525 61.1642C194.332 59.8871 195.073 58.5937 195.747 57.2839C196.461 55.9277 197.183 54.6575 197.911 53.4734C198.141 53.1085 198.429 52.9123 198.773 52.8847C199.375 52.8365 199.702 53.1351 199.754 53.7806C199.771 53.9957 199.536 54.5774 199.049 55.5258C198.559 56.4311 197.949 57.4758 197.221 58.6599C196.536 59.8406 195.886 60.9103 195.27 61.8689C194.654 62.8276 193.95 63.7716 193.158 64.701C192.366 65.6305 191.304 66.1485 189.97 66.2553C188.722 66.3551 187.839 66.1443 187.321 65.6228C186.846 65.0979 186.581 64.4912 186.526 63.8028C186.478 63.2004 186.492 62.5713 186.57 61.9156C186.644 61.2168 186.726 60.6256 186.817 60.142L186.544 59.969C186.194 60.4733 185.662 61.1222 184.946 61.9156C184.23 62.7091 183.43 63.5309 182.545 64.3812C181.657 65.1884 180.76 65.888 179.855 66.4801C178.993 67.0687 178.196 67.3923 177.464 67.4508Z" fill="#1F1F1F"/>
<path d="M157.923 69.4693C157.105 69.5347 156.538 69.212 156.222 68.5012C155.905 67.7904 155.724 67.1553 155.679 66.596C155.6 65.6063 155.628 64.3267 155.762 62.7571C155.896 61.1874 156.111 59.5463 156.407 57.8338C155.956 58.6927 155.462 59.555 154.925 60.4207C154.431 61.283 153.975 62.0773 153.557 62.8036C153.409 63.1185 153.163 63.2898 152.819 63.3173C152.518 63.3414 152.249 63.233 152.013 62.9921C151.735 62.7546 151.691 62.4766 151.882 62.1582C152.376 61.2959 153.019 60.1402 153.813 58.691C154.649 57.2384 155.48 55.7212 156.306 54.1395C157.132 52.5578 157.823 51.1818 158.379 50.0114C158.564 49.607 158.73 49.2472 158.878 48.9323C159.065 48.5709 159.235 48.2542 159.386 47.9822C159.663 47.6569 160.06 47.4736 160.576 47.4323C160.877 47.4082 161.143 47.4736 161.371 47.6285C161.643 47.78 161.791 48.0063 161.816 48.3075C161.822 48.3935 161.808 48.4813 161.772 48.5708C161.735 48.6603 161.699 48.7498 161.663 48.8393C161.288 49.5622 160.958 50.3031 160.672 51.0621C160.386 51.8211 160.144 52.5767 159.944 53.3288C159.457 55.3597 158.998 57.4749 158.568 59.6745C158.177 61.8276 158.022 63.9403 158.101 66.0125L158.364 66.0563C159.23 64.4282 160.3 62.6537 161.576 60.7329C162.891 58.7657 164.336 56.8096 165.913 54.8647C167.486 52.8768 169.116 51.0576 170.802 49.407C172.485 47.7134 174.128 46.3262 175.73 45.2453C175.978 45.0956 176.21 45.0121 176.425 44.9949C176.726 44.9708 176.993 45.0577 177.225 45.2556C177.454 45.4105 177.579 45.617 177.6 45.8752C177.62 46.1334 177.489 46.3821 177.205 46.6213C176.551 47.1067 175.898 47.6135 175.248 48.1419C174.64 48.6669 174.033 49.1918 173.425 49.7168C171.081 51.8097 168.968 54.079 167.085 56.5247C165.199 58.9274 163.516 61.4437 162.038 64.0735C161.695 64.6639 161.376 65.274 161.08 65.904C160.784 66.5339 160.488 67.1638 160.192 67.7937C159.961 68.1586 159.643 68.5089 159.237 68.8445C158.877 69.2197 158.439 69.428 157.923 69.4693Z" fill="#1F1F1F"/>
<path d="M137.345 71.8954C136.183 71.9884 135.234 71.7612 134.497 71.2139C133.761 70.6666 133.186 69.9765 132.773 69.1435C132.399 68.264 132.181 67.4371 132.119 66.6626C132.037 65.6299 132.139 64.4742 132.427 63.1954C132.711 61.8736 132.984 60.964 133.247 60.4666C133.237 60.3375 133.205 60.2101 133.152 60.0845C133.138 59.9124 133.126 59.7618 133.116 59.6327C133.023 58.471 133.099 57.2525 133.343 55.9771C133.613 54.4832 134.195 53.0943 135.088 51.8103C135.978 50.4833 137.123 49.374 138.524 48.4825C139.968 47.5875 141.572 47.0694 143.336 46.9282C145.402 46.763 147.038 47.1949 148.247 48.2241C149.451 49.2103 150.124 50.5854 150.265 52.3495C150.462 54.8021 150.179 56.9466 149.416 58.783C148.697 60.616 147.908 62.3896 147.049 64.1038C146.904 64.4618 146.776 64.7535 146.664 64.979C146.553 65.2045 146.69 65.3017 147.077 65.2707C148.325 65.1709 149.51 64.5564 150.632 63.4273C151.754 62.2983 153.125 60.2183 154.745 57.1874C154.857 56.962 154.972 56.7795 155.091 56.6401C155.209 56.5007 155.398 56.4207 155.656 56.4L155.785 56.3897C156.258 56.3518 156.56 56.6091 156.691 57.1616C156.702 57.2906 156.671 57.4447 156.598 57.6237C155.674 59.603 154.708 61.3258 153.699 62.7922C152.734 64.2551 151.527 65.4126 150.08 66.2646C148.629 67.0735 146.765 67.5908 144.488 67.8163C143.653 68.7491 142.598 69.6347 141.323 70.4729C140.091 71.3076 138.765 71.7818 137.345 71.8954ZM143.066 65.4618L143.711 65.4102C144.528 64.2622 145.291 62.9671 145.998 61.5248C146.749 60.079 147.323 58.6041 147.723 57.0998C148.119 55.5525 148.263 54.112 148.156 52.7781C148.056 51.5303 147.649 50.502 146.935 49.6931C146.217 48.8412 145.063 48.4789 143.471 48.6063C142.395 48.6924 141.36 49.0134 140.365 49.5693C139.41 50.0788 138.592 50.6855 137.912 51.3894L138.127 51.6321C138.209 51.5822 138.337 51.5503 138.509 51.5366C138.767 51.5159 139.012 51.6045 139.244 51.8025C139.473 51.9574 139.596 52.1424 139.614 52.3575C139.624 52.4866 139.611 52.5959 139.575 52.6854C139.539 52.7749 139.481 52.8661 139.402 52.959C138.757 54.0933 138.128 55.1612 137.515 56.1629C136.902 57.1646 136.343 58.2919 135.837 59.5449C135.732 59.8564 135.605 60.1697 135.457 60.4846C135.929 62.0491 136.832 63.3192 138.166 64.2951C139.539 65.2244 141.172 65.6133 143.066 65.4618ZM137.587 70.0573C138.448 69.9884 139.288 69.6614 140.107 69.0762C140.923 68.448 141.613 67.8731 142.178 67.3516C138.88 67.2691 136.355 66.0205 134.603 63.6058C134.584 63.9105 134.534 64.3691 134.453 64.9819C134.372 65.5946 134.356 66.2021 134.404 66.8045C134.473 67.665 134.73 68.4456 135.176 69.146C135.622 69.8465 136.426 70.1503 137.587 70.0573Z" fill="#1F1F1F"/>
<path d="M107.492 72.9852C107.277 73.0024 107.035 72.9568 106.767 72.8484C106.498 72.74 106.355 72.5782 106.338 72.3631C106.311 72.0189 106.351 71.7125 106.46 71.444C106.85 70.3735 107.351 69.056 107.962 67.4915C108.616 65.9235 109.245 64.3143 109.849 62.6638C110.493 60.9668 111.016 59.3876 111.419 57.9264C111.864 56.4618 112.053 55.2992 111.984 54.4386C111.963 54.1804 111.88 53.949 111.733 53.7441C111.627 53.4929 111.401 53.381 111.057 53.4085C110.541 53.4499 110.042 53.7063 109.56 54.1779C109.121 54.6461 108.73 55.1753 108.388 55.7656C108.042 56.313 107.754 56.7691 107.523 57.1339C106.755 58.3645 106.11 59.4988 105.587 60.5366C105.06 61.5314 104.512 62.5279 103.942 63.5262C103.412 64.4779 102.74 65.5493 101.926 66.7404C101.811 66.9228 101.672 67.0854 101.51 67.2283C101.388 67.3247 101.198 67.3832 100.94 67.4039C100.682 67.4245 100.456 67.3126 100.264 67.0683C100.028 66.8273 99.9658 66.5941 100.078 66.3686C100.904 64.7869 101.715 63.293 102.512 61.8869C103.305 60.4377 104.007 59.1907 104.616 58.146C105.225 57.1013 105.645 56.3965 105.876 56.0316C106.532 55.0265 107.212 54.0627 107.918 53.1401C108.666 52.2142 109.729 51.6961 111.106 51.5859C112.268 51.4929 113.09 51.7519 113.572 52.3629C114.097 52.9705 114.393 53.7045 114.462 54.565C114.586 56.114 114.101 58.1664 113.006 60.7223C114.464 58.9168 116.041 57.2534 117.738 55.7319C119.478 54.207 121.108 52.929 122.628 51.898C124.144 50.824 125.303 50.1468 126.103 49.8662C126.48 49.7061 126.858 49.5676 127.239 49.4505C127.662 49.33 128.046 49.256 128.39 49.2285C128.82 49.1941 129.173 49.2741 129.449 49.4686C129.767 49.6596 129.95 50.0563 129.999 50.6587C130.047 51.2611 129.728 52.1526 129.043 53.3333C128.355 54.4709 127.508 55.7945 126.503 57.3039C125.538 58.7669 124.617 60.2479 123.741 61.747C122.865 63.2461 122.262 64.6367 121.931 65.9189C121.826 66.2305 121.764 66.5385 121.745 66.8432C121.723 67.1048 121.72 67.3432 121.738 67.5583C121.831 68.72 122.415 69.2579 123.491 69.1718C124.179 69.1167 125.012 68.7036 125.99 67.9325C126.561 67.4971 127.107 67.0203 127.629 66.5023C128.19 65.9377 128.606 65.4498 128.876 65.0385C129.463 64.2553 129.929 63.5901 130.275 63.0428C130.664 62.4921 131.028 61.9 131.367 61.2666C131.746 60.5868 132.22 59.7477 132.789 58.7495C132.901 58.524 133.018 58.3631 133.141 58.2667C133.263 58.1703 133.474 58.1101 133.776 58.086C134.249 58.0481 134.51 58.3304 134.558 58.9327C134.579 59.1909 134.421 59.6582 134.085 60.3346C133.746 60.968 133.328 61.6943 132.831 62.5135C132.373 63.2863 131.912 64.0161 131.447 64.7028C131.022 65.343 130.712 65.8009 130.518 66.0762C130.089 66.6735 129.533 67.3025 128.85 67.9635C128.21 68.6209 127.541 69.1941 126.844 69.6829C126.187 70.1252 125.499 70.4617 124.781 70.6923C124.064 70.923 123.361 71.0658 122.672 71.1209C121.554 71.2105 120.71 70.9532 120.142 70.3491C119.617 69.7415 119.326 69.0721 119.267 68.3406C119.178 67.2219 119.442 65.9233 120.06 64.4449C120.717 62.92 121.505 61.4062 122.424 59.9037C123.383 58.3547 124.267 56.9632 125.078 55.7291C125.932 54.4916 126.51 53.601 126.813 53.0571C126.889 52.9211 126.945 52.8084 126.981 52.7189C127.013 52.5864 127.026 52.4771 127.019 52.391C126.992 52.0468 126.72 51.8954 126.204 51.9367C125.945 51.9573 125.649 52.046 125.315 52.2026C123.61 53.0752 121.846 54.299 120.023 55.8738C118.244 57.4452 116.603 59.1354 115.103 60.9443C113.642 62.7067 112.496 64.3573 111.667 65.8959L109.41 70.1686C109.223 70.53 109.058 70.9113 108.917 71.3123C108.773 71.6703 108.607 72.03 108.419 72.3914C108.188 72.7563 107.88 72.9542 107.492 72.9852Z" fill="#1F1F1F"/>
<path d="M91.1638 74.7465C88.9263 74.9256 87.3042 74.4059 86.2973 73.1873C85.33 71.9224 84.7758 70.4078 84.6347 68.6437C84.5314 67.3529 84.7318 65.7996 85.2361 63.9838C85.7369 62.125 86.4778 60.2903 87.4587 58.4797C88.4828 56.6656 89.703 55.139 91.1194 53.8998C92.5324 52.6175 94.0994 51.9076 95.8205 51.7698C96.9392 51.6803 97.8471 51.9324 98.5442 52.5262C99.2808 53.0735 99.687 53.8204 99.7628 54.767C99.9074 56.5742 99.466 58.3633 98.4385 60.1343C97.4111 61.9053 96.0153 63.4027 94.2512 64.6264C92.4871 65.8502 90.5509 66.5464 88.4425 66.7151C88.1844 66.7358 87.9262 66.7564 87.668 66.7771C87.4064 66.7547 87.1448 66.7324 86.8832 66.71C86.7989 67.2797 86.786 67.9302 86.8445 68.6617C86.9341 69.7804 87.2749 70.7924 87.8669 71.6977C88.502 72.5995 89.5941 72.9885 91.1431 72.8645C92.4339 72.7612 93.6559 72.3387 94.809 71.5969C95.9621 70.855 96.9147 70.0427 97.6668 69.1597C98.4189 68.2768 99.0488 67.4902 99.5565 66.8001C100.064 66.1099 100.587 65.3319 101.124 64.4662C101.657 63.5575 102.32 62.3785 103.114 60.9293C103.262 60.6144 103.508 60.4431 103.852 60.4156C104.455 60.3674 104.782 60.666 104.833 61.3114C104.85 61.5265 104.821 61.7021 104.746 61.838C103.742 63.9103 102.603 65.9067 101.328 67.8275C100.049 69.7053 98.5739 71.2956 96.9027 72.5985C95.2711 73.8549 93.3582 74.5709 91.1638 74.7465ZM88.7342 64.6782C90.3692 64.5474 91.8623 63.9949 93.2133 63.0207C94.6039 62 95.6977 60.7866 96.4945 59.3805C97.3344 57.9709 97.6992 56.5777 97.589 55.2008C97.5512 54.7275 97.3911 54.3506 97.1088 54.07C96.8696 53.7861 96.4703 53.6665 95.9109 53.7112C94.7922 53.8007 93.7475 54.2741 92.7769 55.1312C91.8027 55.9453 90.9319 56.9676 90.1643 58.1982C89.4363 59.3824 88.8159 60.5579 88.303 61.7248C87.8332 62.8883 87.5002 63.8676 87.304 64.6627C87.5226 64.6886 87.7411 64.7144 87.9597 64.7402C88.2179 64.7195 88.476 64.6989 88.7342 64.6782Z" fill="#1F1F1F"/>
<path d="M66.4459 77.1143C65.6714 77.1762 64.9855 76.993 64.3883 76.5644C63.8341 76.1324 63.5139 75.3786 63.4278 74.3029C63.3142 72.883 63.4803 71.4407 63.926 69.9761C64.3683 68.4684 64.8837 67.0631 65.4723 65.7602L65.1445 65.7215C64.7589 66.3153 64.197 67.1397 63.4587 68.1948C62.76 69.2033 61.9356 70.2653 60.9856 71.3806C60.0751 72.4494 59.1165 73.4571 58.1097 74.4037C57.3042 75.161 56.4901 75.8108 55.6675 76.3529C54.8844 76.8486 54.1486 77.124 53.4602 77.1791C52.7287 77.2376 52.1969 77.0853 51.8647 76.7222C51.5291 76.316 51.3372 75.8117 51.289 75.2093C51.2098 74.2197 51.2528 73.1337 51.418 71.9513C51.6262 70.7655 51.8826 69.6407 52.1873 68.5771C51.9205 69.0315 51.652 69.4643 51.3818 69.8757C51.1546 70.2836 50.9257 70.67 50.6951 71.0348C50.5471 71.3498 50.301 71.5211 49.9568 71.5486C49.6556 71.5727 49.3871 71.4643 49.1513 71.2233C48.8725 70.9858 48.8286 70.7079 49.0196 70.3895C49.5136 69.5272 50.1572 68.3715 50.9506 66.9223C51.787 65.4697 52.6183 63.9525 53.4444 62.3708C54.2705 60.7891 54.9614 59.4131 55.5173 58.2427C55.7015 57.8382 55.8676 57.4785 56.0156 57.1636C56.2032 56.8021 56.3727 56.4854 56.5241 56.2135C56.8012 55.8882 57.1979 55.7049 57.7143 55.6636C58.1015 55.6326 58.4345 55.7359 58.7134 55.9734C58.8528 56.0921 58.9311 56.2591 58.9483 56.4742L58.9535 56.5387C58.9603 56.6248 58.9457 56.7126 58.9096 56.8021C58.8734 56.8916 58.8373 56.9811 58.8012 57.0706C58.8012 57.0706 58.7616 57.117 58.6824 57.21C58.0061 59.0395 57.2867 60.8725 56.5243 62.7089C55.8015 64.4989 55.2533 66.0367 54.8799 67.3224C54.7783 67.6769 54.6114 68.2965 54.3791 69.1811C54.1467 70.0658 53.9394 70.9917 53.757 71.959C53.5711 72.8832 53.5006 73.625 53.5453 74.1844C53.5901 74.7437 53.8061 75.0079 54.1933 74.9769C54.4515 74.9563 54.8069 74.7979 55.2595 74.5019C55.7518 74.1594 56.3576 73.6129 57.077 72.8625C58.3574 71.5476 59.5682 70.1732 60.7093 68.7395C61.8503 67.3058 62.9251 65.8558 63.9336 64.3894C64.0489 64.207 64.3389 63.7724 64.8036 63.0857C65.3079 62.3525 65.8698 61.528 66.4894 60.6124C67.1485 59.6503 67.7681 58.7347 68.3481 57.8655C68.9677 56.9499 69.4719 56.2167 69.8609 55.6659C70.2498 55.1151 70.8316 54.8088 71.6061 54.7468C71.9072 54.7227 72.1723 54.7881 72.4012 54.943C72.6301 55.0979 72.7583 55.3474 72.7859 55.6917C72.8065 55.9498 72.7988 56.1236 72.7627 56.2131C72.5183 57.4885 71.9547 58.8327 71.0718 60.2457C70.2285 61.6123 69.3094 63.1148 68.3147 64.7533C67.3595 66.3454 66.5506 68.1422 65.8881 70.1438C65.8588 70.3194 65.7839 70.7368 65.6635 71.3959C65.5396 72.0121 65.5017 72.6214 65.5499 73.2237C65.5913 73.7401 65.7135 74.185 65.9166 74.5584C66.1592 74.8854 66.4957 75.0317 66.926 74.9973C67.7005 74.9353 68.6376 74.4706 69.7374 73.6032C70.8802 72.7323 72.0092 71.6892 73.1244 70.4741C74.2362 69.216 75.2439 68.0095 76.1474 66.8546C77.0906 65.6533 77.773 64.7109 78.1946 64.0277C79.3047 62.2067 80.216 60.3367 80.9285 58.4177C81.6409 56.4987 81.9369 54.7862 81.8164 53.2802C81.6994 51.8173 80.5849 51.1486 78.4732 51.2743C77.8708 51.3225 77.5489 51.0885 77.5076 50.5722C77.4904 50.357 77.5609 50.1565 77.7193 49.9706C77.8776 49.7847 78.1074 49.6798 78.4086 49.6556C79.961 49.5747 81.1933 49.8225 82.1055 50.3991C83.0607 50.9722 83.5883 51.8826 83.6881 53.1304C83.8224 54.8085 83.5152 56.6518 82.7666 58.6603C82.018 60.6689 81.0903 62.6051 79.9837 64.4691C78.6069 66.7444 77.1018 68.7702 75.4685 70.5464C73.8783 72.3191 71.9602 74.0532 69.7142 75.7485C69.222 76.091 68.6833 76.3939 68.0981 76.6573C67.556 76.9172 67.0052 77.0695 66.4459 77.1143Z" fill="#1F1F1F"/>
<path d="M9.32908 83.4294C11.2687 82.2349 12.4887 81.3238 14.3802 79.5269C16.3112 77.6836 18.1656 75.6948 19.9435 73.5606C21.7643 71.423 23.4613 69.3602 25.0343 67.3723C23.4131 67.6753 21.8598 68.0161 20.3745 68.3947C18.9288 68.727 17.5313 69.1202 16.1819 69.5746L15.9238 69.5953C15.4074 69.6366 15.1286 69.3991 15.0873 68.8828C15.0701 68.6677 15.1389 68.4456 15.2938 68.2167C15.4453 67.9448 15.6699 67.7753 15.9676 67.7081C19.0673 66.9404 22.4535 66.2364 26.1263 65.5961C32.5148 56.6841 37.628 49.6929 41.466 44.6225C45.3039 39.5521 48.4276 36.3792 50.8371 35.1038C51.7923 34.5943 52.7217 34.3034 53.6253 34.2311C54.5719 34.1554 55.0693 34.4187 55.1175 35.0211C55.1657 35.6235 54.6554 36.552 53.5866 37.8067C52.165 39.5227 50.7435 41.7799 49.3219 44.5784C47.9434 47.3735 46.6716 50.4199 45.5064 53.7175C44.3809 56.9687 43.4955 60.244 42.8502 63.5433C43.4525 63.4951 43.9473 63.4555 44.3346 63.4245C44.7184 63.3505 45.0626 63.323 45.3673 63.3419C45.801 63.3505 46.134 63.4538 46.3664 63.6517C46.5987 63.8496 46.7235 64.0561 46.7407 64.2713C46.782 64.7876 46.48 65.0716 45.8346 65.1232C45.4043 65.1577 44.9095 65.1973 44.3501 65.242C43.8304 65.2403 43.2693 65.2636 42.6669 65.3118C42.1696 68.2962 42.019 71.0146 42.2153 73.4672C42.2635 74.0696 42.3315 74.6487 42.4193 75.2046C42.5071 75.7605 42.6146 76.2932 42.742 76.8027C43.0398 77.8181 43.3703 78.701 43.7334 79.4514C44.1396 80.1983 44.6224 80.5494 45.1818 80.5047C45.8272 80.453 46.5948 79.7637 47.4845 78.4367C47.7978 78.0219 48.105 77.8025 48.4062 77.7784C48.6213 77.7612 48.8003 77.8335 48.9432 77.9952C49.0895 78.2 49.0903 78.4814 48.9458 78.8394C48.1541 80.8514 46.9623 81.9211 45.3702 82.0485C44.5097 82.1174 43.6397 81.7973 42.7602 81.0882C41.9237 80.3757 41.2645 79.1726 40.7826 77.4791C40.4246 76.252 40.187 74.9069 40.07 73.444C39.9735 72.2392 39.9382 70.9863 39.964 69.6851C40.0294 68.3375 40.1559 66.9417 40.3434 65.4977C38.5793 65.6389 36.5802 65.8205 34.3463 66.0426C32.1519 66.2182 29.9446 66.503 27.7244 66.8972C27.6883 66.9867 27.6108 67.1012 27.4921 67.2406C27.3699 67.337 27.2692 67.4316 27.19 67.5246C25.6239 69.5985 23.8727 71.7955 21.9365 74.1156C19.9969 76.3927 17.9609 78.5475 15.8285 80.5802C13.7391 82.6094 12.8776 82.9898 10.8043 84.4712C8.54576 86.085 7.78465 86.6883 7.33762 87.5324C6.89058 88.3765 7.2155 89.63 7.78947 90.28C8.36343 90.93 9.72572 91.2849 11.3392 91.1558C12.9528 91.0267 293.254 60.0131 297.384 59.4506C301.515 58.888 300.59 60.23 297.707 60.5846C261.667 65.018 13.3708 92.3851 11.4499 92.5388C9.37539 92.7048 7.49447 92.3914 6.49867 91.5432C5.50288 90.6949 5.14209 88.5504 5.6872 87.2005C6.2323 85.8506 7.38943 84.6239 9.32908 83.4294ZM29.0694 65.0358C31.1674 64.738 33.2258 64.4867 35.2446 64.2819C37.26 64.034 39.062 63.8248 40.6506 63.6544C41.1737 60.4514 41.98 57.2691 43.0694 54.1074C44.1553 50.9027 45.3678 47.9261 46.7067 45.1775C48.0457 42.4288 49.3364 40.1604 50.579 38.3722C50.6943 38.1897 50.8673 37.9161 51.0979 37.5512C51.3251 37.1433 51.5342 36.7801 51.7252 36.4617C51.9558 36.0968 52.0299 35.9394 51.9472 35.9893C49.703 37.1648 46.7677 40.2577 43.1415 45.2679C39.5548 50.2316 34.8641 56.8209 29.0694 65.0358Z" fill="#1F1F1F"/>
<path d="M297.938 60.5662C301.395 60.2895 304.535 59.1094 306.07 57.8276C307.562 56.5512 309.042 54.3605 309.583 52.443C310.123 50.5254 310.65 49.645 310.292 46.8187C309.935 43.9923 308.772 40.1052 306.636 36.6336C305.058 34.1356 303.101 31.9032 300.763 29.9364C298.421 27.9267 295.881 26.4206 293.144 25.4181C290.401 24.3728 287.616 24.0288 284.79 24.3863C282.606 24.6626 280.909 25.1817 279.701 25.9437C278.486 26.6629 277.66 27.5288 277.223 28.5413C276.737 29.5165 276.559 30.5179 276.689 31.5457C276.868 32.9589 277.464 34.2322 278.478 35.3658C279.491 36.4993 280.641 37.1589 281.926 37.3444C281.974 37.3818 282.041 37.3951 282.127 37.3842C282.175 37.4216 282.263 37.4322 282.392 37.416C282.306 37.4268 282.218 37.4162 282.127 37.3842C282.084 37.3897 282.062 37.3924 282.062 37.3924L281.926 37.3444C281.294 37.1633 280.632 36.5726 279.94 35.5725C279.205 34.5777 278.759 33.4594 278.601 32.2175C278.428 30.8471 278.785 29.5402 279.672 28.2968C280.559 27.0534 282.394 26.2557 285.178 25.9036C287.661 25.5894 290.165 25.9472 292.688 26.9768C295.168 28.0118 297.489 29.5022 299.649 31.4478C301.767 33.3989 303.564 35.5647 305.04 37.945C306.913 41.0583 308.32 44.2827 308.716 47.4088C309.073 50.2351 307.038 55.4303 304.844 56.9978C302.649 58.5653 300.092 59.0866 296.924 59.4874C292.98 59.9863 294.48 60.8429 297.938 60.5662Z" fill="#1F1F1F"/>
<path d="M278.539 59.7523C276.43 59.9211 274.782 59.6199 273.595 58.8489C272.407 58.0779 271.776 57.219 271.7 56.2724C271.645 55.584 271.898 54.9575 272.459 54.393C272.973 53.7889 273.919 53.4317 275.296 53.3215C276.157 53.2527 277.2 53.2991 278.425 53.4609C279.346 53.6037 280.315 53.8076 281.332 54.0727C282.392 54.3342 283.458 54.4005 284.531 54.2714C284.794 53.774 284.935 53.373 284.954 53.0683C284.973 52.7637 284.965 52.3962 284.931 51.966C284.817 50.5461 284.486 49.3817 283.937 48.473C283.431 47.5609 282.84 46.6771 282.166 45.8217C281.534 44.9629 280.973 43.9036 280.482 42.6438C279.999 43.6351 279.389 44.9397 278.652 46.5576C277.912 48.1324 276.657 50.3113 274.888 53.0944C274.776 53.3198 274.527 53.4481 274.14 53.479C273.494 53.5307 273.149 53.2768 273.104 52.7175C273.094 52.5884 273.186 52.3862 273.38 52.1108C273.532 51.8389 273.909 51.1375 274.511 50.0067C275.186 48.697 275.978 47.2263 276.886 45.5946C277.791 43.92 278.642 42.0982 279.437 40.1293C279.421 39.3943 279.515 38.6723 279.718 37.9633C279.921 37.2542 280.172 36.6062 280.472 36.0193C280.883 35.2069 281.333 34.6079 281.822 34.2224C282.307 33.7938 282.765 33.5623 283.195 33.5279C284.013 33.4625 284.46 33.9031 284.535 34.8497C284.587 35.4951 284.396 36.3548 283.962 37.4288C283.713 38.0983 283.37 38.6886 282.935 39.1998C282.496 39.6679 282.118 40.0879 281.802 40.4597C281.974 41.5284 282.309 42.4759 282.808 43.302C283.308 44.1281 283.848 44.9293 284.43 45.7055C285.055 46.4782 285.598 47.3224 286.061 48.238C286.524 49.1537 286.809 50.2784 286.916 51.6122C286.985 52.4728 286.898 53.2808 286.655 54.0364C287.605 54.0037 288.546 53.582 289.477 52.7713C290.448 51.9142 291.337 50.8471 292.144 49.57C292.994 48.2895 293.735 46.9961 294.367 45.6898C294.558 45.3714 294.825 45.1984 295.169 45.1709C295.385 45.1536 295.605 45.201 295.83 45.3128C296.056 45.4247 296.181 45.6312 296.205 45.9324C296.218 46.1045 296.171 46.3248 296.063 46.5933C294.994 48.9306 293.929 50.7696 292.867 52.1104C291.844 53.4046 290.771 54.3349 289.647 54.9012C288.524 55.4674 287.255 55.8504 285.842 56.0501C284.846 57.1258 283.746 57.9933 282.543 58.6525C281.379 59.2652 280.045 59.6318 278.539 59.7523ZM278.092 58.2292C279.082 58.15 279.93 57.9305 280.638 57.5708C281.345 57.2111 282.107 56.7171 282.922 56.0889C282.008 56.0321 281.243 55.9418 280.627 55.8179C280.008 55.6509 279.216 55.4978 278.252 55.3584C277.027 55.1966 276.07 55.1433 275.381 55.1984C274.134 55.2982 273.534 55.6494 273.582 56.2517C273.62 56.725 274.07 57.2087 274.932 57.7026C275.791 58.1535 276.844 58.329 278.092 58.2292Z" fill="#1F1F1F"/>
<path d="M250.818 61.5159C250.603 61.5331 250.361 61.4875 250.093 61.3791C249.825 61.2707 249.682 61.1089 249.664 60.8937C249.637 60.5495 249.677 60.2432 249.786 59.9747C250.176 58.9041 250.677 57.5866 251.288 56.0222C251.942 54.4542 252.571 52.845 253.175 51.1944C253.819 49.4974 254.342 47.9183 254.745 46.4571C255.191 44.9924 255.379 43.8298 255.31 42.9693C255.289 42.7111 255.206 42.4796 255.06 42.2748C254.953 42.0236 254.727 41.9117 254.383 41.9392C253.867 41.9805 253.368 42.237 252.886 42.7086C252.447 43.1767 252.056 43.706 251.714 44.2963C251.368 44.8436 251.08 45.2997 250.849 45.6646C250.082 46.8952 249.436 48.0294 248.913 49.0673C248.386 50.0621 247.838 51.0586 247.268 52.0568C246.738 53.0086 246.066 54.08 245.252 55.271C245.137 55.4535 244.998 55.6161 244.837 55.759C244.714 55.8554 244.524 55.9139 244.266 55.9345C244.008 55.9552 243.782 55.8433 243.59 55.5989C243.354 55.358 243.292 55.1248 243.404 54.8993C244.23 53.3176 245.041 51.8237 245.838 50.4175C246.632 48.9684 247.333 47.7214 247.942 46.6767C248.551 45.632 248.971 44.9272 249.202 44.5623C249.858 43.5572 250.538 42.5933 251.244 41.6708C251.993 40.7448 253.055 40.2268 254.432 40.1166C255.594 40.0236 256.416 40.2826 256.898 40.8936C257.423 41.5011 257.72 42.2352 257.788 43.0957C257.912 44.6447 257.427 46.6971 256.333 49.253C257.79 47.4475 259.368 45.784 261.065 44.2626C262.805 42.7376 264.434 41.4597 265.954 40.4287C267.47 39.3547 268.629 38.6774 269.429 38.3969C269.806 38.2368 270.185 38.0983 270.565 37.9812C270.988 37.8607 271.372 37.7867 271.716 37.7592C272.147 37.7247 272.499 37.8048 272.775 37.9992C273.093 38.1903 273.277 38.587 273.325 39.1894C273.373 39.7917 273.055 40.6833 272.37 41.864C271.681 43.0016 270.834 44.3252 269.829 45.8346C268.864 47.2975 267.943 48.7786 267.067 50.2776C266.191 51.7767 265.588 53.1674 265.257 54.4496C265.152 54.7611 265.09 55.0692 265.072 55.3739C265.049 55.6355 265.047 55.8738 265.064 56.089C265.157 57.2507 265.741 57.7885 266.817 57.7025C267.505 57.6474 268.338 57.2343 269.316 56.4632C269.887 56.0278 270.434 55.551 270.955 55.0329C271.516 54.4684 271.932 53.9805 272.202 53.5691C272.789 52.786 273.255 52.1208 273.601 51.5735C273.99 51.0227 274.354 50.4307 274.693 49.7973C275.072 49.1175 275.546 48.2784 276.116 47.2802C276.228 47.0547 276.345 46.8938 276.467 46.7974C276.589 46.701 276.801 46.6408 277.102 46.6167C277.575 46.5788 277.836 46.861 277.884 47.4634C277.905 47.7216 277.747 48.1889 277.412 48.8653C277.073 49.4986 276.654 50.2249 276.157 51.0442C275.699 51.817 275.238 52.5467 274.773 53.2335C274.348 53.8737 274.038 54.3315 273.844 54.6069C273.415 55.2041 272.86 55.8332 272.176 56.4941C271.536 57.1516 270.867 57.7247 270.17 58.2135C269.513 58.6559 268.825 58.9924 268.108 59.223C267.39 59.4537 266.687 59.5965 265.998 59.6516C264.88 59.7411 264.036 59.4838 263.468 58.8798C262.944 58.2722 262.652 57.6027 262.593 56.8713C262.504 55.7526 262.768 54.454 263.386 52.9755C264.043 51.4506 264.831 49.9369 265.75 48.4344C266.709 46.8854 267.594 45.4939 268.404 44.2598C269.258 43.0223 269.836 42.1316 270.139 41.5878C270.215 41.4518 270.271 41.3391 270.307 41.2496C270.34 41.117 270.352 41.0078 270.346 40.9217C270.318 40.5775 270.046 40.426 269.53 40.4674C269.272 40.488 268.976 40.5767 268.642 40.7333C266.936 41.6059 265.172 42.8297 263.349 44.4045C261.57 45.9759 259.93 47.666 258.429 49.4749C256.968 51.2374 255.822 52.8879 254.993 54.4266L252.737 58.6993C252.549 59.0607 252.385 59.4419 252.243 59.843C252.099 60.201 251.933 60.5607 251.745 60.9221C251.515 61.287 251.206 61.4849 250.818 61.5159Z" fill="#1F1F1F"/>
<path d="M228.862 64.572C227.7 64.665 226.751 64.4378 226.014 63.8905C225.278 63.3432 224.703 62.6531 224.29 61.8201C223.916 60.9406 223.698 60.1136 223.636 59.3391C223.554 58.3065 223.656 57.1508 223.944 55.872C224.228 54.5502 224.501 53.6406 224.765 53.1432C224.754 53.0141 224.722 52.8867 224.669 52.7611C224.655 52.589 224.643 52.4384 224.633 52.3093C224.54 51.1476 224.616 49.929 224.86 48.6537C225.13 47.1598 225.712 45.7708 226.605 44.4869C227.495 43.1599 228.64 42.0506 230.041 41.1591C231.485 40.2641 233.089 39.746 234.853 39.6048C236.919 39.4395 238.555 39.8715 239.764 40.9007C240.968 41.8868 241.641 43.262 241.783 45.0261C241.979 47.4787 241.696 49.6232 240.933 51.4596C240.214 53.2926 239.425 55.0662 238.566 56.7804C238.421 57.1384 238.293 57.4301 238.181 57.6556C238.07 57.881 238.207 57.9783 238.595 57.9473C239.842 57.8474 241.027 57.233 242.149 56.1039C243.272 54.9749 244.642 52.8949 246.262 49.864C246.374 49.6385 246.489 49.4561 246.608 49.3167C246.726 49.1773 246.915 49.0972 247.173 49.0766L247.302 49.0663C247.775 49.0284 248.078 49.2857 248.208 49.8381C248.219 49.9672 248.188 50.1213 248.115 50.3003C247.191 52.2795 246.225 54.0024 245.216 55.4688C244.251 56.9317 243.044 58.0892 241.597 58.9412C240.146 59.7501 238.282 60.2673 236.005 60.4929C235.17 61.4257 234.115 62.3112 232.84 63.1494C231.608 63.9842 230.282 64.4584 228.862 64.572ZM234.583 58.1384L235.228 58.0868C236.046 56.9388 236.808 55.6437 237.515 54.2014C238.266 52.7556 238.84 51.2806 239.24 49.7764C239.636 48.2291 239.78 46.7886 239.673 45.4547C239.573 44.2069 239.166 43.1786 238.452 42.3697C237.734 41.5177 236.58 41.1555 234.988 41.2829C233.912 41.369 232.877 41.69 231.882 42.2459C230.927 42.7554 230.109 43.3621 229.429 44.066L229.644 44.3087C229.726 44.2588 229.854 44.2269 230.026 44.2132C230.284 44.1925 230.529 44.2811 230.761 44.479C230.99 44.6339 231.113 44.819 231.131 45.0341C231.141 45.1632 231.128 45.2725 231.092 45.362C231.056 45.4515 230.998 45.5427 230.919 45.6356C230.274 46.7698 229.645 47.8378 229.032 48.8395C228.419 49.8412 227.86 50.9685 227.354 52.2215C227.249 52.533 227.122 52.8462 226.974 53.1612C227.446 54.7257 228.349 55.9958 229.683 56.9716C231.056 57.901 232.689 58.2899 234.583 58.1384ZM229.104 62.7339C229.965 62.665 230.805 62.338 231.624 61.7528C232.44 61.1246 233.13 60.5497 233.695 60.0282C230.397 59.9457 227.872 58.6971 226.12 56.2824C226.101 56.587 226.051 57.0457 225.97 57.6584C225.889 58.2711 225.873 58.8787 225.921 59.4811C225.99 60.3416 226.247 61.1221 226.693 61.8226C227.139 62.5231 227.943 62.8268 229.104 62.7339Z" fill="#1F1F1F"/>
<path d="M219.6 37.3179C219.385 37.3351 219.145 37.311 218.88 37.2456C218.615 37.1802 218.471 36.9969 218.446 36.6957C218.429 36.4806 218.478 36.2818 218.594 36.0993C218.886 35.4264 219.465 34.8171 220.331 34.2715C221.24 33.7225 221.931 33.429 222.404 33.3911C222.619 33.3739 222.861 33.4195 223.129 33.5279C223.394 33.5933 223.539 33.7766 223.563 34.0778C223.622 34.8093 223.223 35.5123 222.368 36.187C221.556 36.8583 220.633 37.2352 219.6 37.3179ZM214.484 64.2935C213.021 64.4106 211.827 64.0948 210.901 63.3462C209.975 62.5975 209.453 61.4917 209.336 60.0288C209.267 59.1682 209.286 58.3223 209.393 57.491C209.496 56.6167 209.666 55.7587 209.902 54.9171C210.036 54.4301 210.318 53.628 210.748 52.511C211.218 51.3475 211.771 50.1342 212.406 48.8709C213.037 47.5645 213.663 46.4536 214.282 45.5379C214.902 44.6223 215.47 44.1438 215.986 44.1025C216.201 44.0853 216.488 44.1489 216.846 44.2935C217.244 44.3916 217.454 44.5912 217.478 44.8924C217.492 45.0645 217.423 45.2866 217.272 45.5585C216.372 46.7564 215.446 48.1729 214.494 49.808C213.542 51.443 212.768 53.1288 212.171 54.8654C211.574 56.602 211.337 58.2448 211.461 59.7938C211.619 61.7731 212.645 62.6869 214.538 62.5355C215.829 62.4322 217.07 61.705 218.261 60.3539C219.495 58.9994 220.824 57.2042 222.247 54.9685C222.672 54.3282 223.034 53.7147 223.334 53.1278C223.673 52.4944 223.976 51.9505 224.243 51.4961C224.52 51.1708 224.83 50.9944 225.174 50.9669C225.691 50.9256 225.964 51.0985 225.995 51.4858C226.033 51.9591 225.749 52.7396 225.144 53.8273C224.538 54.9151 223.849 56.0527 223.078 57.2403C221.566 59.4399 220.228 61.1275 219.067 62.303C217.905 63.4785 216.377 64.1421 214.484 64.2935Z" fill="#1F1F1F"/>
<path d="M201.228 67.6278C200.367 67.6966 199.699 67.4686 199.224 66.9437C198.753 66.4618 198.423 65.8603 198.236 65.1391C198.048 64.418 197.932 63.7777 197.887 63.2184C197.746 61.4543 197.91 59.4492 198.38 57.2031C198.85 54.9571 199.427 52.7025 200.112 50.4392C200.84 48.1725 201.501 46.1493 202.095 44.3697C201.324 44.4747 200.473 44.6727 199.544 44.9636C198.658 45.251 197.849 45.424 197.117 45.4825C196.515 45.5307 196.193 45.2967 196.152 44.7803C196.093 44.0489 196.446 43.5876 197.21 43.3965C198.14 43.1057 199.094 42.8561 200.073 42.6478C201.053 42.4395 202.012 42.2545 202.952 42.0927C203.172 41.5987 203.479 40.838 203.873 39.8105C204.267 38.783 204.721 37.6858 205.234 36.5189C205.743 35.3089 206.241 34.2298 206.729 33.2815C207.255 32.2867 207.697 31.5801 208.053 31.1619C208.29 30.8831 208.56 30.7316 208.861 30.7075C209.162 30.6834 209.427 30.7488 209.656 30.9037C209.885 31.0586 210.01 31.2651 210.03 31.5233C210.041 31.6524 209.99 31.8296 209.878 32.0551C208.909 33.475 208.123 35.0103 207.519 36.6608C206.915 38.3114 206.307 39.9189 205.696 41.4834C206.464 41.3353 207.274 41.1839 208.128 41.0289C208.982 40.874 209.817 40.7639 210.635 40.6984C210.893 40.6778 211.133 40.7019 211.355 40.7707C211.62 40.8361 211.765 41.0194 211.789 41.3206C211.809 41.5787 211.698 41.8042 211.453 41.997C211.252 42.1863 211.004 42.336 210.71 42.4462C209.777 42.6941 208.799 42.9238 207.777 43.1356C206.794 43.3008 205.813 43.4876 204.834 43.6959C204.378 45.0314 203.848 46.5245 203.244 48.175C202.64 49.8256 202.062 51.5389 201.511 53.3151C201 55.0448 200.593 56.7229 200.29 58.3494C199.988 59.9758 199.888 61.4344 199.991 62.7252C200.008 62.9404 200.038 63.3061 200.079 63.8224C200.16 64.2923 200.302 64.714 200.505 65.0874C200.708 65.4609 200.982 65.6339 201.326 65.6063C202.057 65.5478 202.558 65.3129 202.828 64.9015C203.099 64.4902 203.427 64.269 203.815 64.238C204.116 64.2139 204.381 64.2793 204.61 64.4342C204.882 64.5856 205.028 64.7904 205.049 65.0486C205.08 65.4359 204.851 65.8222 204.362 66.2078C203.916 66.5899 203.379 66.9143 202.751 67.1811C202.123 67.4479 201.615 67.5968 201.228 67.6278Z" fill="#1F1F1F"/>
<path d="M177.464 67.4508C176.044 67.5645 175.025 67.2779 174.408 66.5912C173.829 65.858 173.497 64.9536 173.411 63.8779C173.328 62.8453 173.414 61.7558 173.669 60.6096C173.924 59.4633 174.207 58.4014 174.518 57.4238C174.869 56.3997 175.155 55.6407 175.375 55.1468C176.043 53.751 176.8 52.3913 177.647 51.0677C178.537 49.7407 179.503 48.5592 180.546 47.5231C181.586 46.4439 182.666 45.5997 183.786 44.9904C184.946 44.3346 186.129 43.9586 187.333 43.8622C189.399 43.6969 190.906 44.1392 191.856 45.189C192.803 46.1958 193.326 47.3231 193.426 48.5709C193.461 49.0012 193.432 49.4582 193.341 49.9418C193.221 50.601 193.05 51.1775 192.83 51.6715C192.653 52.162 192.392 52.421 192.048 52.4486C191.746 52.4727 191.455 52.3445 191.172 52.0639C190.89 51.7834 190.78 51.4891 190.842 51.181C190.904 50.873 190.987 50.5632 191.092 50.2516C191.24 49.9367 191.324 49.6269 191.343 49.3222C191.369 49.1037 191.375 48.9083 191.361 48.7362C191.39 48.5606 191.398 48.3868 191.384 48.2147C191.291 47.053 190.84 46.288 190.031 45.9197C189.262 45.5049 188.447 45.3319 187.586 45.4008C186.597 45.48 185.586 45.8423 184.556 46.4877C183.568 47.1297 182.716 47.8475 182 48.6409C181.129 49.6632 180.27 50.8362 179.423 52.1597C178.577 53.4833 177.861 54.818 177.276 56.1639C177.207 56.3859 177.011 56.9212 176.69 57.7697C176.411 58.6148 176.141 59.5674 175.879 60.6276C175.657 61.6413 175.58 62.5785 175.649 63.439C175.697 64.0414 175.868 64.5474 176.16 64.957C176.496 65.3632 177.008 65.5387 177.697 65.4836C178.428 65.4251 179.24 65.0137 180.131 64.2495C181.066 63.4819 181.988 62.5637 182.898 61.4949C183.848 60.3796 184.694 59.3159 185.436 58.3039C186.178 57.2919 186.722 56.5122 187.068 55.9649C187.298 55.6 187.506 55.2153 187.69 54.8109C187.914 54.36 188.141 53.9521 188.371 53.5872C188.487 53.4047 188.738 53.298 189.125 53.267C189.469 53.2395 189.822 53.3195 190.184 53.5071C190.585 53.6482 190.756 53.8943 190.697 54.2454C190.549 54.5604 190.28 55.2532 189.889 56.3237C189.538 57.3477 189.217 58.4776 188.927 59.7134C188.632 60.9061 188.521 61.9543 188.594 62.8578C188.683 63.9766 189.079 64.5944 189.781 64.7114C190.261 64.7596 190.742 64.5479 191.224 64.0763C191.749 63.6013 192.204 63.0669 192.59 62.4731C193.019 61.8759 193.33 61.4396 193.525 61.1642C194.332 59.8871 195.073 58.5937 195.747 57.2839C196.461 55.9277 197.183 54.6575 197.911 53.4734C198.141 53.1085 198.429 52.9123 198.773 52.8847C199.375 52.8365 199.702 53.1351 199.754 53.7805C199.771 53.9957 199.536 54.5774 199.049 55.5257C198.559 56.4311 197.949 57.4758 197.221 58.6599C196.536 59.8406 195.886 60.9103 195.27 61.8689C194.654 62.8276 193.95 63.7716 193.158 64.701C192.366 65.6304 191.304 66.1485 189.97 66.2553C188.722 66.3551 187.839 66.1443 187.321 65.6228C186.846 65.0979 186.581 64.4912 186.526 63.8028C186.478 63.2004 186.492 62.5713 186.57 61.9156C186.644 61.2168 186.726 60.6256 186.817 60.142L186.544 59.969C186.194 60.4733 185.662 61.1222 184.946 61.9156C184.23 62.7091 183.43 63.5309 182.545 64.3811C181.657 65.1884 180.76 65.888 179.855 66.4801C178.993 67.0687 178.196 67.3923 177.464 67.4508Z" fill="#1F1F1F"/>
<path d="M157.923 69.4693C157.105 69.5347 156.538 69.212 156.222 68.5012C155.905 67.7904 155.724 67.1553 155.679 66.5959C155.6 65.6063 155.628 64.3267 155.762 62.757C155.896 61.1874 156.111 59.5463 156.407 57.8338C155.956 58.6927 155.462 59.555 154.925 60.4207C154.431 61.283 153.975 62.0772 153.557 62.8036C153.409 63.1185 153.163 63.2898 152.819 63.3173C152.518 63.3414 152.249 63.233 152.013 62.9921C151.734 62.7545 151.691 62.4766 151.882 62.1582C152.376 61.2959 153.019 60.1402 153.813 58.691C154.649 57.2384 155.48 55.7212 156.306 54.1395C157.132 52.5578 157.823 51.1818 158.379 50.0114C158.564 49.607 158.73 49.2472 158.878 48.9323C159.065 48.5708 159.235 48.2542 159.386 47.9822C159.663 47.6569 160.06 47.4736 160.576 47.4323C160.877 47.4082 161.143 47.4736 161.371 47.6285C161.643 47.7799 161.791 48.0063 161.816 48.3075C161.822 48.3935 161.808 48.4813 161.772 48.5708C161.735 48.6603 161.699 48.7498 161.663 48.8393C161.288 49.5621 160.958 50.3031 160.672 51.0621C160.386 51.8211 160.144 52.5767 159.944 53.3288C159.457 55.3597 158.998 57.4749 158.568 59.6745C158.177 61.8276 158.022 63.9402 158.101 66.0124L158.364 66.0563C159.23 64.4282 160.3 62.6537 161.576 60.7329C162.891 58.7657 164.336 56.8096 165.913 54.8647C167.486 52.8768 169.116 51.0576 170.802 49.407C172.485 47.7134 174.128 46.3262 175.73 45.2453C175.978 45.0956 176.21 45.0121 176.425 44.9949C176.726 44.9708 176.993 45.0577 177.225 45.2556C177.454 45.4105 177.579 45.617 177.6 45.8752C177.62 46.1334 177.489 46.3821 177.205 46.6213C176.551 47.1067 175.898 47.6135 175.248 48.1419C174.64 48.6669 174.033 49.1918 173.425 49.7168C171.081 51.8097 168.968 54.079 167.085 56.5247C165.199 58.9274 163.516 61.4437 162.038 64.0735C161.695 64.6639 161.376 65.274 161.08 65.9039C160.784 66.5339 160.488 67.1638 160.192 67.7937C159.961 68.1586 159.643 68.5089 159.237 68.8445C158.877 69.2197 158.439 69.4279 157.923 69.4693Z" fill="#1F1F1F"/>
<path d="M137.345 71.8954C136.183 71.9884 135.234 71.7612 134.497 71.2139C133.761 70.6666 133.186 69.9765 132.773 69.1435C132.399 68.264 132.181 67.437 132.119 66.6625C132.037 65.6299 132.139 64.4742 132.427 63.1954C132.711 61.8736 132.984 60.964 133.247 60.4666C133.237 60.3375 133.205 60.2101 133.152 60.0845C133.138 59.9124 133.126 59.7618 133.116 59.6327C133.023 58.471 133.099 57.2524 133.343 55.9771C133.613 54.4832 134.195 53.0943 135.088 51.8103C135.978 50.4833 137.123 49.374 138.524 48.4825C139.968 47.5875 141.572 47.0694 143.336 46.9282C145.402 46.763 147.038 47.1949 148.247 48.2241C149.451 49.2103 150.124 50.5854 150.266 52.3495C150.462 54.8021 150.179 56.9466 149.416 58.783C148.697 60.616 147.908 62.3896 147.049 64.1038C146.904 64.4618 146.776 64.7535 146.664 64.979C146.553 65.2045 146.69 65.3017 147.077 65.2707C148.325 65.1709 149.51 64.5564 150.632 63.4273C151.754 62.2983 153.125 60.2183 154.745 57.1874C154.857 56.962 154.972 56.7795 155.091 56.6401C155.209 56.5007 155.398 56.4207 155.656 56.4L155.785 56.3897C156.258 56.3518 156.561 56.6091 156.691 57.1616C156.702 57.2906 156.671 57.4447 156.598 57.6237C155.674 59.603 154.708 61.3258 153.699 62.7922C152.734 64.2551 151.527 65.4126 150.08 66.2646C148.629 67.0735 146.765 67.5908 144.488 67.8163C143.653 68.7491 142.598 69.6346 141.323 70.4728C140.091 71.3076 138.765 71.7818 137.345 71.8954ZM143.066 65.4618L143.711 65.4102C144.528 64.2622 145.291 62.9671 145.998 61.5248C146.749 60.079 147.323 58.604 147.723 57.0998C148.119 55.5525 148.263 54.112 148.156 52.7781C148.056 51.5303 147.649 50.502 146.935 49.6931C146.217 48.8412 145.063 48.4789 143.471 48.6063C142.395 48.6924 141.36 49.0134 140.365 49.5693C139.41 50.0788 138.592 50.6855 137.912 51.3894L138.127 51.6321C138.209 51.5822 138.337 51.5503 138.509 51.5366C138.767 51.5159 139.012 51.6045 139.244 51.8025C139.473 51.9573 139.596 52.1424 139.614 52.3575C139.624 52.4866 139.611 52.5959 139.575 52.6854C139.539 52.7749 139.481 52.8661 139.402 52.959C138.757 54.0932 138.128 55.1612 137.515 56.1629C136.902 57.1646 136.343 58.2919 135.837 59.5449C135.732 59.8564 135.605 60.1696 135.457 60.4846C135.929 62.0491 136.832 63.3192 138.166 64.295C139.539 65.2244 141.172 65.6133 143.066 65.4618ZM137.587 70.0573C138.448 69.9884 139.288 69.6614 140.107 69.0762C140.923 68.448 141.613 67.8731 142.178 67.3516C138.88 67.2691 136.355 66.0205 134.603 63.6058C134.584 63.9105 134.534 64.3691 134.453 64.9818C134.372 65.5946 134.356 66.2021 134.404 66.8045C134.473 67.665 134.73 68.4455 135.176 69.146C135.622 69.8465 136.426 70.1503 137.587 70.0573Z" fill="#1F1F1F"/>
<path d="M107.492 72.9852C107.277 73.0024 107.035 72.9568 106.767 72.8484C106.498 72.74 106.355 72.5782 106.338 72.3631C106.311 72.0188 106.351 71.7125 106.46 71.444C106.85 70.3735 107.351 69.056 107.962 67.4915C108.616 65.9235 109.245 64.3143 109.849 62.6637C110.493 60.9667 111.016 59.3876 111.419 57.9264C111.864 56.4617 112.053 55.2991 111.984 54.4386C111.963 54.1804 111.88 53.9489 111.733 53.7441C111.627 53.4929 111.401 53.381 111.057 53.4085C110.541 53.4499 110.042 53.7063 109.56 54.1779C109.121 54.646 108.73 55.1753 108.388 55.7656C108.042 56.313 107.754 56.7691 107.523 57.1339C106.755 58.3645 106.11 59.4987 105.587 60.5366C105.06 61.5314 104.512 62.5279 103.942 63.5262C103.412 64.4779 102.74 65.5493 101.926 66.7403C101.811 66.9228 101.672 67.0854 101.51 67.2283C101.388 67.3247 101.198 67.3832 100.94 67.4038C100.682 67.4245 100.456 67.3126 100.264 67.0682C100.028 66.8273 99.9658 66.5941 100.078 66.3686C100.904 64.7869 101.715 63.293 102.512 61.8868C103.305 60.4377 104.007 59.1907 104.616 58.146C105.225 57.1013 105.645 56.3965 105.876 56.0316C106.531 55.0265 107.212 54.0626 107.918 53.1401C108.666 52.2141 109.729 51.6961 111.106 51.5859C112.268 51.4929 113.09 51.7519 113.572 52.3629C114.097 52.9704 114.393 53.7045 114.462 54.565C114.586 56.114 114.101 58.1664 113.006 60.7223C114.464 58.9168 116.041 57.2533 117.738 55.7319C119.478 54.2069 121.108 52.929 122.628 51.898C124.144 50.824 125.303 50.1467 126.103 49.8662C126.48 49.7061 126.858 49.5676 127.239 49.4505C127.662 49.33 128.046 49.256 128.39 49.2285C128.82 49.194 129.173 49.2741 129.449 49.4685C129.767 49.6596 129.95 50.0563 129.999 50.6587C130.047 51.261 129.728 52.1526 129.043 53.3333C128.355 54.4709 127.508 55.7945 126.503 57.3039C125.538 58.7668 124.617 60.2479 123.741 61.747C122.865 63.246 122.262 64.6367 121.931 65.9189C121.826 66.2304 121.764 66.5385 121.745 66.8432C121.723 67.1048 121.72 67.3431 121.738 67.5583C121.831 68.72 122.415 69.2578 123.491 69.1718C124.179 69.1167 125.012 68.7036 125.99 67.9325C126.561 67.4971 127.107 67.0203 127.629 66.5023C128.19 65.9377 128.606 65.4498 128.876 65.0384C129.463 64.2553 129.929 63.5901 130.275 63.0428C130.664 62.492 131.028 61.9 131.367 61.2666C131.746 60.5868 132.22 59.7477 132.789 58.7495C132.901 58.524 133.018 58.3631 133.141 58.2667C133.263 58.1703 133.474 58.1101 133.776 58.086C134.249 58.0481 134.51 58.3303 134.558 58.9327C134.579 59.1909 134.421 59.6582 134.085 60.3346C133.746 60.9679 133.328 61.6943 132.831 62.5135C132.373 63.2863 131.912 64.016 131.447 64.7028C131.022 65.343 130.712 65.8008 130.518 66.0762C130.089 66.6735 129.533 67.3025 128.85 67.9634C128.21 68.6209 127.541 69.194 126.844 69.6829C126.187 70.1252 125.499 70.4617 124.781 70.6923C124.064 70.923 123.361 71.0658 122.672 71.1209C121.554 71.2104 120.71 70.9532 120.142 70.3491C119.617 69.7415 119.326 69.072 119.267 68.3406C119.177 67.2219 119.442 65.9233 120.06 64.4449C120.717 62.92 121.505 61.4062 122.424 59.9037C123.383 58.3547 124.267 56.9632 125.078 55.7291C125.932 54.4916 126.51 53.601 126.813 53.0571C126.889 52.9211 126.944 52.8084 126.981 52.7189C127.013 52.5864 127.026 52.4771 127.019 52.391C126.992 52.0468 126.72 51.8953 126.204 51.9367C125.945 51.9573 125.649 52.046 125.315 52.2026C123.61 53.0752 121.846 54.299 120.023 55.8738C118.244 57.4452 116.603 59.1354 115.103 60.9443C113.642 62.7067 112.496 64.3572 111.667 65.8959L109.41 70.1686C109.223 70.53 109.058 70.9113 108.917 71.3123C108.773 71.6703 108.607 72.03 108.419 72.3914C108.188 72.7563 107.88 72.9542 107.492 72.9852Z" fill="#1F1F1F"/>
<path d="M91.1637 74.7465C88.9263 74.9256 87.3042 74.4058 86.2973 73.1873C85.33 71.9223 84.7758 70.4078 84.6346 68.6437C84.5313 67.3529 84.7318 65.7996 85.2361 63.9838C85.7368 62.125 86.4777 60.2903 87.4587 58.4797C88.4827 56.6656 89.703 55.139 91.1194 53.8998C92.5324 52.6175 94.0994 51.9075 95.8205 51.7698C96.9392 51.6803 97.8471 51.9324 98.5442 52.5262C99.2808 53.0735 99.687 53.8204 99.7628 54.767C99.9074 56.5742 99.4659 58.3632 98.4385 60.1343C97.411 61.9053 96.0153 63.4027 94.2512 64.6264C92.4871 65.8502 90.5508 66.5464 88.4425 66.7151C88.1843 66.7358 87.9262 66.7564 87.668 66.7771C87.4064 66.7547 87.1448 66.7323 86.8832 66.71C86.7989 67.2797 86.786 67.9302 86.8445 68.6617C86.934 69.7804 87.2748 70.7924 87.8669 71.6977C88.502 72.5995 89.5941 72.9885 91.1431 72.8645C92.4339 72.7612 93.6558 72.3387 94.809 71.5969C95.9621 70.855 96.9147 70.0427 97.6668 69.1597C98.4189 68.2768 99.0488 67.4902 99.5565 66.8001C100.064 66.1099 100.587 65.3319 101.123 64.4662C101.657 63.5575 102.32 62.3785 103.114 60.9293C103.262 60.6144 103.508 60.4431 103.852 60.4156C104.455 60.3674 104.782 60.666 104.833 61.3114C104.85 61.5265 104.821 61.7021 104.745 61.838C103.742 63.9102 102.603 65.9067 101.328 67.8275C100.049 69.7053 98.5738 71.2956 96.9027 72.5985C95.2711 73.8549 93.3581 74.5709 91.1637 74.7465ZM88.7342 64.6782C90.3692 64.5473 91.8623 63.9948 93.2133 63.0207C94.6039 62 95.6977 60.7866 96.4945 59.3805C97.3344 57.9709 97.6992 56.5777 97.589 55.2008C97.5511 54.7275 97.3911 54.3506 97.1088 54.07C96.8696 53.7861 96.4703 53.6664 95.9109 53.7112C94.7922 53.8007 93.7475 54.2741 92.7768 55.1312C91.8027 55.9453 90.9319 56.9676 90.1643 58.1982C89.4363 59.3824 88.8159 60.5579 88.303 61.7248C87.8332 62.8883 87.5002 63.8676 87.304 64.6627C87.5226 64.6885 87.7411 64.7144 87.9597 64.7402C88.2179 64.7195 88.476 64.6988 88.7342 64.6782Z" fill="#1F1F1F"/>
<path d="M66.4458 77.1143C65.6713 77.1762 64.9855 76.9929 64.3883 76.5644C63.8341 76.1324 63.5139 75.3786 63.4278 74.3029C63.3142 72.883 63.4803 71.4407 63.926 69.9761C64.3683 68.4684 64.8837 67.0631 65.4723 65.7602L65.1444 65.7215C64.7589 66.3153 64.197 67.1397 63.4587 68.1947C62.7599 69.2033 61.9356 70.2653 60.9855 71.3805C60.0751 72.4494 59.1165 73.4571 58.1096 74.4037C57.3042 75.161 56.4901 75.8107 55.6675 76.3529C54.8844 76.8486 54.1486 77.124 53.4602 77.1791C52.7287 77.2376 52.1969 77.0853 51.8647 76.7222C51.5291 76.316 51.3372 75.8117 51.289 75.2093C51.2098 74.2197 51.2528 73.1337 51.418 71.9513C51.6262 70.7655 51.8826 69.6407 52.1872 68.5771C51.9205 69.0315 51.652 69.4643 51.3818 69.8757C51.1546 70.2836 50.9257 70.67 50.6951 71.0348C50.5471 71.3498 50.301 71.5211 49.9568 71.5486C49.6556 71.5727 49.3871 71.4643 49.1513 71.2233C48.8725 70.9858 48.8286 70.7079 49.0196 70.3895C49.5135 69.5272 50.1572 68.3715 50.9506 66.9223C51.787 65.4697 52.6183 63.9525 53.4444 62.3708C54.2704 60.7891 54.9614 59.413 55.5173 58.2427C55.7015 57.8382 55.8675 57.4785 56.0156 57.1636C56.2031 56.8021 56.3727 56.4854 56.5241 56.2135C56.8012 55.8882 57.1979 55.7049 57.7142 55.6636C58.1015 55.6326 58.4345 55.7359 58.7133 55.9734C58.8528 56.0921 58.9311 56.2591 58.9483 56.4742L58.9534 56.5387C58.9603 56.6248 58.9457 56.7126 58.9096 56.8021C58.8734 56.8916 58.8373 56.9811 58.8011 57.0706C58.8011 57.0706 58.7616 57.117 58.6824 57.21C58.006 59.0395 57.2867 60.8725 56.5243 62.7089C55.8014 64.4989 55.2533 66.0367 54.8799 67.3223C54.7783 67.6769 54.6114 68.2965 54.3791 69.1811C54.1467 70.0658 53.9394 70.9917 53.7569 71.959C53.5711 72.8832 53.5005 73.625 53.5453 74.1844C53.5901 74.7437 53.8061 75.0079 54.1933 74.9769C54.4515 74.9563 54.8069 74.7979 55.2595 74.5019C55.7517 74.1594 56.3576 73.6129 57.077 72.8625C58.3574 71.5476 59.5682 70.1732 60.7092 68.7395C61.8503 67.3058 62.9251 65.8558 63.9336 64.3894C64.0489 64.207 64.3389 63.7724 64.8036 63.0856C65.3079 62.3524 65.8698 61.528 66.4894 60.6124C67.1485 59.6503 67.7681 58.7346 68.3481 57.8655C68.9676 56.9498 69.4719 56.2167 69.8609 55.6659C70.2498 55.1151 70.8316 54.8088 71.606 54.7468C71.9072 54.7227 72.1723 54.7881 72.4012 54.943C72.6301 55.0979 72.7583 55.3474 72.7859 55.6916C72.8065 55.9498 72.7988 56.1236 72.7626 56.2131C72.5183 57.4885 71.9547 58.8327 71.0718 60.2457C70.2285 61.6123 69.3094 63.1148 68.3147 64.7533C67.3595 66.3453 66.5506 68.1422 65.888 70.1438C65.8588 70.3194 65.7839 70.7367 65.6635 71.3959C65.5396 72.0121 65.5017 72.6214 65.5499 73.2237C65.5912 73.7401 65.7134 74.185 65.9165 74.5584C66.1592 74.8854 66.4957 75.0317 66.926 74.9973C67.7005 74.9353 68.6376 74.4706 69.7374 73.6031C70.8801 72.7322 72.0092 71.6892 73.1244 70.4741C74.2362 69.216 75.2439 68.0095 76.1474 66.8546C77.0906 65.6532 77.7729 64.7109 78.1946 64.0276C79.3047 62.2067 80.2159 60.3367 80.9284 58.4177C81.6409 56.4986 81.9369 54.7861 81.8164 53.2802C81.6993 51.8173 80.5849 51.1486 78.4731 51.2743C77.8708 51.3225 77.5489 51.0885 77.5076 50.5721C77.4904 50.357 77.5609 50.1565 77.7193 49.9706C77.8776 49.7847 78.1074 49.6797 78.4086 49.6556C79.961 49.5747 81.1933 49.8225 82.1055 50.3991C83.0607 50.9722 83.5882 51.8826 83.6881 53.1304C83.8224 54.8085 83.5152 56.6518 82.7666 58.6603C82.0179 60.6688 81.0903 62.6051 79.9837 64.4691C78.6069 66.7444 77.1018 68.7701 75.4685 70.5464C73.8783 72.3191 71.9602 74.0532 69.7142 75.7485C69.2219 76.091 68.6832 76.3939 68.0981 76.6573C67.5559 76.9172 67.0052 77.0695 66.4458 77.1143Z" fill="#1F1F1F"/>
<path d="M9.32907 83.4294C11.2687 82.2349 12.4887 81.3238 14.3801 79.5269C16.3112 77.6836 18.1656 75.6948 19.9435 73.5606C21.7643 71.423 23.4613 69.3602 25.0343 67.3723C23.4131 67.6752 21.8598 68.0161 20.3745 68.3947C18.9288 68.7269 17.5312 69.1202 16.1819 69.5746L15.9238 69.5953C15.4074 69.6366 15.1286 69.3991 15.0873 68.8828C15.0701 68.6676 15.1389 68.4456 15.2938 68.2167C15.4453 67.9448 15.6699 67.7752 15.9676 67.7081C19.0673 66.9404 22.4535 66.2364 26.1263 65.5961C32.5148 56.6841 37.628 49.6929 41.466 44.6225C45.3039 39.5521 48.4276 36.3792 50.8371 35.1038C51.7923 34.5943 52.7217 34.3034 53.6253 34.2311C54.5719 34.1554 55.0693 34.4187 55.1175 35.0211C55.1657 35.6235 54.6554 36.552 53.5866 37.8067C52.165 39.5227 50.7435 41.7799 49.3219 44.5784C47.9434 47.3735 46.6715 50.4199 45.5064 53.7175C44.3809 56.9687 43.4955 60.244 42.8501 63.5433C43.4525 63.4951 43.9473 63.4555 44.3346 63.4245C44.7184 63.3505 45.0626 63.323 45.3672 63.3419C45.801 63.3505 46.134 63.4538 46.3663 63.6517C46.5987 63.8496 46.7235 64.0561 46.7407 64.2713C46.782 64.7876 46.48 65.0716 45.8346 65.1232C45.4043 65.1577 44.9095 65.1973 44.3501 65.242C43.8303 65.2403 43.2693 65.2636 42.6669 65.3118C42.1696 68.2961 42.019 71.0146 42.2153 73.4672C42.2635 74.0696 42.3315 74.6487 42.4193 75.2046C42.5071 75.7605 42.6146 76.2932 42.742 76.8026C43.0398 77.8181 43.3703 78.701 43.7334 79.4514C44.1396 80.1983 44.6224 80.5494 45.1817 80.5047C45.8272 80.453 46.5947 79.7637 47.4845 78.4367C47.7978 78.0219 48.105 77.8025 48.4062 77.7784C48.6213 77.7612 48.8003 77.8334 48.9431 77.9952C49.0894 78.2 49.0903 78.4814 48.9457 78.8394C48.1541 80.8514 46.9623 81.9211 45.3702 82.0485C44.5097 82.1174 43.6397 81.7972 42.7602 81.0882C41.9237 80.3757 41.2645 79.1726 40.7826 77.4791C40.4245 76.2519 40.187 74.9069 40.0699 73.444C39.9735 72.2392 39.9382 70.9863 39.964 69.6851C40.0294 68.3375 40.1558 66.9417 40.3434 65.4977C38.5793 65.6389 36.5802 65.8205 34.3463 66.0425C32.1519 66.2181 29.9446 66.503 27.7244 66.8972C27.6882 66.9867 27.6108 67.1012 27.492 67.2406C27.3699 67.337 27.2692 67.4316 27.19 67.5246C25.6239 69.5985 23.8727 71.7955 21.9365 74.1156C19.9969 76.3927 17.9609 78.5475 15.8285 80.5802C13.7391 82.6094 12.8776 82.9898 10.8043 84.4712C8.54575 86.085 7.78464 86.6883 7.33761 87.5324C6.89057 88.3765 7.21549 89.63 7.78946 90.28C8.36342 90.93 9.72571 91.2849 11.3392 91.1558C12.9528 91.0267 293.254 60.0131 297.384 59.4506C301.515 58.888 300.59 60.23 297.707 60.5846C261.667 65.018 13.3708 92.3851 11.4499 92.5388C9.37538 92.7048 7.49446 92.3914 6.49866 91.5432C5.50287 90.6949 5.14209 88.5504 5.68719 87.2005C6.23229 85.8506 7.38942 84.6238 9.32907 83.4294ZM29.0694 65.0358C31.1674 64.738 33.2258 64.4867 35.2446 64.2818C37.26 64.034 39.062 63.8248 40.6506 63.6544C41.1737 60.4514 41.98 57.2691 43.0694 54.1074C44.1553 50.9027 45.3677 47.9261 46.7067 45.1774C48.0456 42.4288 49.3364 40.1604 50.579 38.3721C50.6943 38.1897 50.8673 37.916 51.0979 37.5512C51.3251 37.1433 51.5342 36.7801 51.7252 36.4617C51.9558 36.0968 52.0298 35.9393 51.9472 35.9893C49.703 37.1648 46.7677 40.2577 43.1415 45.2679C39.5548 50.2316 34.8641 56.8209 29.0694 65.0358Z" fill="#1F1F1F"/>
</svg>
